# xmcd
#
# Track frame offsets: 
#        150
#        14841
#        30186
#        46329
#        59337
#        75034
#        86764
#        101507
#        117176
#        139616
#        155163
#        170477
#        185875
#        198782
#        211045
#        226495
#
# Disc length: 3212 seconds
#
# Revision: 0
# Processed by: cddbd v1.5PL3 Copyright (c) Steve Scherf et al.
# Submitted via: ExactAudioCopy v0.90b4
#
DISCID=cb0c8a10
DTITLE=Glenn Miller - Forever Gold
DYEAR=1900
DGENRE=Blues
TTITLE0=Moonlight Serenade
TTITLE1=In The Mood
TTITLE2=Little Brown Jug
TTITLE3=Tuxedo Junction
TTITLE4=Fools Rush In (Where Angels Fear To Tread))
TTITLE5=Pennsylvania 6 - 5000
TTITLE6=Sunrise Serenade
TTITLE7=Anvil Chorus
TTITLE8=Of The Volga Boatmen
TTITLE9=Ciribiribin
TTITLE10=Star Dust
TTITLE11=Moonlight Mood
TTITLE12=Caribbean Clipper
TTITLE13=Chattanooga Chao Choo
TTITLE14=A String Of Pearls (I've Got A Gal In)
TTITLE15=Kalamazoo
EXTD=
EXTT0=
EXTT1=
EXTT2=
EXTT3=
EXTT4=
EXTT5=
EXTT6=
EXTT7=
EXTT8=
EXTT9=
EXTT10=
EXTT11=
EXTT12=
EXTT13=
EXTT14=
EXTT15=
PLAYORDER=
